<svg xmlns="http://www.w3.org/2000/svg" viewBox="0 0 38.28 50.37"><defs><style>.cls-1{fill:#2a4153;}</style></defs><g id="Layer_2" data-name="Layer 2"><g id="Layer_1-2" data-name="Layer 1"><path class="cls-1" d="M35,11.73a4.15,4.15,0,0,0-4.16-4H7.49a4.13,4.13,0,0,0-4.15,3.89L0,43.18a6.87,6.87,0,0,0,6.87,7.19H31.41a6.78,6.78,0,0,0,5-2.13,6.87,6.87,0,0,0,1.89-5.15Z"/><path class="cls-1" d="M25.29,2.82A8,8,0,0,0,19.17,0h-.06A8,8,0,0,0,13,2.82c-2.4,2.68-3.47,6.89-2.94,11.54a1.16,1.16,0,0,0,1.16,1h.13a1.17,1.17,0,0,0,1-1.29c-.45-4,.41-7.54,2.37-9.73a5.76,5.76,0,0,1,4.37-2h.06a5.78,5.78,0,0,1,4.38,2c1.95,2.19,2.81,5.74,2.36,9.73a1.17,1.17,0,0,0,1,1.29h.14a1.18,1.18,0,0,0,1.16-1C28.76,9.71,27.69,5.5,25.29,2.82Z"/></g></g></svg>