<svg width="38.25" height="38.18" xmlns="http://www.w3.org/2000/svg"><g><path d="M26.955 18.016a13.1 13.1 0 0 0 1.72-6.56c0-3.038-1.007-5.952-2.797-8.1-.336-.404-.701-.781-1.095-1.129A8.538 8.538 0 0 0 19.127 0 8.145 8.145 0 0 0 15.8.719a9.545 9.545 0 0 0-3.423 2.637c-.401.482-.761.998-1.077 1.542a13.1 13.1 0 0 0-1.719 6.558c0 3.039 1.006 5.953 2.796 8.102.336.403.702.78 1.095 1.128a8.538 8.538 0 0 0 5.656 2.227 8.145 8.145 0 0 0 3.329-.719 9.545 9.545 0 0 0 3.422-2.636c.401-.483.762-1 1.077-1.542zM4.044 38.184h30.169a4.115 4.115 0 0 0 2.832-1.115c1.144-1.079 1.614-2.786.796-4.423a15.744 15.744 0 0 0-4.557-5.396 20.017 20.017 0 0 0-4.608-2.623c-1.008-.336-2.163-.377-3.077.008a2.856 2.856 0 0 0-.36.183 11.35 11.35 0 0 1-6.11 1.718c-1.18.01-2.353-.164-3.48-.514-.921-.296-1.804-.7-2.63-1.204a5.177 5.177 0 0 0-.89-.266 4.507 4.507 0 0 0-1.36-.074c-.413.041-.815.156-1.188.34a19.537 19.537 0 0 0-5.657 3.493 15.316 15.316 0 0 0-3.508 4.526 3.51 3.51 0 0 0-.274.66c-.688 2.303 1.29 4.687 3.902 4.687z" fill="#2a4153" fill-rule="evenodd"/></g></svg>