<svg xmlns="http://www.w3.org/2000/svg" viewBox="0 0 42.7 37.98"><defs><style>.cls-1{fill:#2a4153;}</style></defs><g id="Layer_2" data-name="Layer 2"><g id="Layer_1-2" data-name="Layer 1"><g id="Group_440" data-name="Group 440"><path id="_8150286_wishlist_save_save_for_later_shopping_ecommerce_icon" data-name=" 8150286 wishlist save save for later shopping ecommerce icon" class="cls-1" d="M40.68,5.54A12.83,12.83,0,0,0,30,0a11.54,11.54,0,0,0-8.67,3.7A11.54,11.54,0,0,0,12.68,0,12.83,12.83,0,0,0,2,5.54a13.08,13.08,0,0,0-.56,13A33.09,33.09,0,0,0,8,28.13a72.8,72.8,0,0,0,10,8.76,5.69,5.69,0,0,0,6.71,0,72.13,72.13,0,0,0,10-8.76,33.49,33.49,0,0,0,6.5-9.6A13.1,13.1,0,0,0,40.68,5.54Z"/></g></g></g></svg>